{
    "asset" : {
        "generator" : "Khronos glTF Blender I/O v0.9.36",
        "version" : "2.0"
    },
    "scene" : 0,
    "scenes" : [
        {
            "name" : "Animate",
            "nodes" : [
                9
            ]
        }
    ],
    "nodes" : [
        {
            "name" : "Bone.003",
            "rotation" : [
                -0.00022530218120664358,
                0.998885452747345,
                0.04719948768615723,
                1.5198118489934132e-05
            ],
            "scale" : [
                0.9999999403953552,
                0.9999999403953552,
                0.9999999403953552
            ],
            "translation" : [
                -2.1959295276249846e-15,
                0.0390438511967659,
                2.3283064365386963e-10
            ]
        },
        {
            "name" : "wingtip.l",
            "rotation" : [
                0.00431440444663167,
                0.04477900639176369,
                -0.09579536318778992,
                0.9943840503692627
            ],
            "translation" : [
                -1.6292567295295157e-09,
                0.05193369835615158,
                -3.943512183468556e-10
            ]
        },
        {
            "children" : [
                1
            ],
            "name" : "wing.l",
            "rotation" : [
                -0.4899604618549347,
                0.5454995632171631,
                0.5058791041374207,
                0.45437347888946533
            ],
            "scale" : [
                1.000000238418579,
                1,
                1
            ],
            "translation" : [
                -0.029736822471022606,
                0.005213189870119095,
                0.018213242292404175
            ]
        },
        {
            "name" : "wingtip.r",
            "rotation" : [
                0.004474411718547344,
                -0.04644203931093216,
                0.09578793495893478,
                0.9943076968193054
            ],
            "scale" : [
                0.9999998807907104,
                0.9999998807907104,
                1
            ],
            "translation" : [
                -1.925957171522441e-09,
                0.05193372443318367,
                -7.94191379327458e-10
            ]
        },
        {
            "children" : [
                3
            ],
            "name" : "wing.r",
            "rotation" : [
                -0.4899582862854004,
                -0.5455012321472168,
                -0.5058812499046326,
                0.4543716311454773
            ],
            "translation" : [
                0.029736725613474846,
                0.005213190335780382,
                0.01821344904601574
            ]
        },
        {
            "children" : [
                0,
                2,
                4
            ],
            "name" : "Bone.002",
            "rotation" : [
                5.653391355053827e-08,
                0.9995232820510864,
                -0.030873488634824753,
                -2.220237320216256e-06
            ],
            "scale" : [
                1,
                1.0000001192092896,
                1
            ],
            "translation" : [
                -1.505882569850583e-16,
                0.04058966785669327,
                1.127773430198431e-10
            ]
        },
        {
            "children" : [
                5
            ],
            "name" : "Bone.001",
            "rotation" : [
                0.040045056492090225,
                -2.396807587956573e-07,
                -9.605738426898824e-09,
                0.9991979002952576
            ],
            "scale" : [
                1,
                0.9999999403953552,
                1
            ],
            "translation" : [
                -5.169878828456423e-25,
                0.03261888027191162,
                2.3283064365386963e-10
            ]
        },
        {
            "children" : [
                6
            ],
            "name" : "Bone",
            "rotation" : [
                0.6732208728790283,
                5.2782659843298654e-20,
                1.494900787689431e-16,
                0.7394415140151978
            ],
            "scale" : [
                1,
                0.9999999403953552,
                0.9999718070030212
            ],
            "translation" : [
                0,
                0,
                -0.06868388503789902
            ]
        },
        {
            "mesh" : 0,
            "name" : "Codorniz",
            "skin" : 0
        },
        {
            "children" : [
                8,
                7
            ],
            "name" : "Codorniz_armature"
        }
    ],
    "animations" : [
        {
            "channels" : [
                {
                    "sampler" : 0,
                    "target" : {
                        "node" : 4,
                        "path" : "rotation"
                    }
                },
                {
                    "sampler" : 1,
                    "target" : {
                        "node" : 4,
                        "path" : "translation"
                    }
                },
                {
                    "sampler" : 2,
                    "target" : {
                        "node" : 4,
                        "path" : "scale"
                    }
                },
                {
                    "sampler" : 3,
                    "target" : {
                        "node" : 3,
                        "path" : "rotation"
                    }
                },
                {
                    "sampler" : 4,
                    "target" : {
                        "node" : 3,
                        "path" : "translation"
                    }
                },
                {
                    "sampler" : 5,
                    "target" : {
                        "node" : 3,
                        "path" : "scale"
                    }
                },
                {
                    "sampler" : 6,
                    "target" : {
                        "node" : 2,
                        "path" : "rotation"
                    }
                },
                {
                    "sampler" : 7,
                    "target" : {
                        "node" : 2,
                        "path" : "translation"
                    }
                },
                {
                    "sampler" : 8,
                    "target" : {
                        "node" : 2,
                        "path" : "scale"
                    }
                },
                {
                    "sampler" : 9,
                    "target" : {
                        "node" : 1,
                        "path" : "rotation"
                    }
                },
                {
                    "sampler" : 10,
                    "target" : {
                        "node" : 5,
                        "path" : "rotation"
                    }
                },
                {
                    "sampler" : 11,
                    "target" : {
                        "node" : 6,
                        "path" : "rotation"
                    }
                }
            ],
            "name" : "ArmatureAction.005",
            "samplers" : [
                {
                    "input" : 5,
                    "interpolation" : "CUBICSPLINE",
                    "output" : 6
                },
                {
                    "input" : 7,
                    "interpolation" : "STEP",
                    "output" : 8
                },
                {
                    "input" : 7,
                    "interpolation" : "STEP",
                    "output" : 9
                },
                {
                    "input" : 5,
                    "interpolation" : "CUBICSPLINE",
                    "output" : 10
                },
                {
                    "input" : 11,
                    "interpolation" : "STEP",
                    "output" : 12
                },
                {
                    "input" : 11,
                    "interpolation" : "STEP",
                    "output" : 13
                },
                {
                    "input" : 5,
                    "interpolation" : "CUBICSPLINE",
                    "output" : 14
                },
                {
                    "input" : 7,
                    "interpolation" : "STEP",
                    "output" : 15
                },
                {
                    "input" : 7,
                    "interpolation" : "STEP",
                    "output" : 16
                },
                {
                    "input" : 5,
                    "interpolation" : "CUBICSPLINE",
                    "output" : 17
                },
                {
                    "input" : 5,
                    "interpolation" : "CUBICSPLINE",
                    "output" : 18
                },
                {
                    "input" : 5,
                    "interpolation" : "CUBICSPLINE",
                    "output" : 19
                }
            ]
        }
    ],
    "meshes" : [
        {
            "name" : "Codorniz_geo",
            "primitives" : [
                {
                    "attributes" : {
                        "POSITION" : 0,
                        "JOINTS_0" : 1,
                        "WEIGHTS_0" : 2
                    },
                    "indices" : 3
                }
            ]
        }
    ],
    "skins" : [
        {
            "inverseBindMatrices" : 4,
            "joints" : [
                7,
                6,
                5,
                0,
                2,
                1,
                4,
                3
            ],
            "name" : "Codorniz_armature"
        }
    ],
    "accessors" : [
        {
            "bufferView" : 0,
            "componentType" : 5126,
            "count" : 1556,
            "max" : [
                0.16662077605724335,
                0.03204214572906494,
                0.0924612507224083
            ],
            "min" : [
                -0.16662077605724335,
                -0.029142627492547035,
                -0.09725697338581085
            ],
            "type" : "VEC3"
        },
        {
            "bufferView" : 1,
            "componentType" : 5123,
            "count" : 1556,
            "type" : "VEC4"
        },
        {
            "bufferView" : 2,
            "componentType" : 5126,
            "count" : 1556,
            "type" : "VEC4"
        },
        {
            "bufferView" : 3,
            "componentType" : 5123,
            "count" : 2814,
            "type" : "SCALAR"
        },
        {
            "bufferView" : 4,
            "componentType" : 5126,
            "count" : 8,
            "type" : "MAT4"
        },
        {
            "bufferView" : 5,
            "componentType" : 5126,
            "count" : 4,
            "max" : [
                1
            ],
            "min" : [
                0
            ],
            "type" : "SCALAR"
        },
        {
            "bufferView" : 6,
            "componentType" : 5126,
            "count" : 12,
            "type" : "VEC4"
        },
        {
            "bufferView" : 7,
            "componentType" : 5126,
            "count" : 1,
            "max" : [
                0.75
            ],
            "min" : [
                0.75
            ],
            "type" : "SCALAR"
        },
        {
            "bufferView" : 8,
            "componentType" : 5126,
            "count" : 1,
            "type" : "VEC3"
        },
        {
            "bufferView" : 9,
            "componentType" : 5126,
            "count" : 1,
            "type" : "VEC3"
        },
        {
            "bufferView" : 10,
            "componentType" : 5126,
            "count" : 12,
            "type" : "VEC4"
        },
        {
            "bufferView" : 11,
            "componentType" : 5126,
            "count" : 1,
            "max" : [
                0
            ],
            "min" : [
                0
            ],
            "type" : "SCALAR"
        },
        {
            "bufferView" : 12,
            "componentType" : 5126,
            "count" : 1,
            "type" : "VEC3"
        },
        {
            "bufferView" : 13,
            "componentType" : 5126,
            "count" : 1,
            "type" : "VEC3"
        },
        {
            "bufferView" : 14,
            "componentType" : 5126,
            "count" : 12,
            "type" : "VEC4"
        },
        {
            "bufferView" : 15,
            "componentType" : 5126,
            "count" : 1,
            "type" : "VEC3"
        },
        {
            "bufferView" : 16,
            "componentType" : 5126,
            "count" : 1,
            "type" : "VEC3"
        },
        {
            "bufferView" : 17,
            "componentType" : 5126,
            "count" : 12,
            "type" : "VEC4"
        },
        {
            "bufferView" : 18,
            "componentType" : 5126,
            "count" : 12,
            "type" : "VEC4"
        },
        {
            "bufferView" : 19,
            "componentType" : 5126,
            "count" : 12,
            "type" : "VEC4"
        }
    ],
    "bufferViews" : [
        {
            "buffer" : 0,
            "byteLength" : 18672,
            "byteOffset" : 0
        },
        {
            "buffer" : 0,
            "byteLength" : 12448,
            "byteOffset" : 18672
        },
        {
            "buffer" : 0,
            "byteLength" : 24896,
            "byteOffset" : 31120
        },
        {
            "buffer" : 0,
            "byteLength" : 5628,
            "byteOffset" : 56016
        },
        {
            "buffer" : 0,
            "byteLength" : 512,
            "byteOffset" : 61644
        },
        {
            "buffer" : 0,
            "byteLength" : 16,
            "byteOffset" : 62156
        },
        {
            "buffer" : 0,
            "byteLength" : 192,
            "byteOffset" : 62172
        },
        {
            "buffer" : 0,
            "byteLength" : 4,
            "byteOffset" : 62364
        },
        {
            "buffer" : 0,
            "byteLength" : 12,
            "byteOffset" : 62368
        },
        {
            "buffer" : 0,
            "byteLength" : 12,
            "byteOffset" : 62380
        },
        {
            "buffer" : 0,
            "byteLength" : 192,
            "byteOffset" : 62392
        },
        {
            "buffer" : 0,
            "byteLength" : 4,
            "byteOffset" : 62584
        },
        {
            "buffer" : 0,
            "byteLength" : 12,
            "byteOffset" : 62588
        },
        {
            "buffer" : 0,
            "byteLength" : 12,
            "byteOffset" : 62600
        },
        {
            "buffer" : 0,
            "byteLength" : 192,
            "byteOffset" : 62612
        },
        {
            "buffer" : 0,
            "byteLength" : 12,
            "byteOffset" : 62804
        },
        {
            "buffer" : 0,
            "byteLength" : 12,
            "byteOffset" : 62816
        },
        {
            "buffer" : 0,
            "byteLength" : 192,
            "byteOffset" : 62828
        },
        {
            "buffer" : 0,
            "byteLength" : 192,
            "byteOffset" : 63020
        },
        {
            "buffer" : 0,
            "byteLength" : 192,
            "byteOffset" : 63212
        }
    ],
    "buffers" : [
        {
            "byteLength" : 63404,
            "uri" : "data:application/octet-stream;base64,"
        }
    ]
}
