{
    "asset" : {
        "generator" : "Khronos glTF Blender I/O v0.9.36",
        "version" : "2.0"
    },
    "scene" : 0,
    "scenes" : [
        {
            "name" : "Animate",
            "nodes" : [
                9
            ]
        }
    ],
    "nodes" : [
        {
            "name" : "Bone.003",
            "rotation" : [
                -0.00022530241403728724,
                0.9988855123519897,
                0.04719947278499603,
                1.5198119399428833e-05
            ],
            "scale" : [
                0.9999999403953552,
                1.000000238418579,
                0.9999999403953552
            ],
            "translation" : [
                -7.549516567451064e-15,
                0.0390438549220562,
                -3.4924596548080444e-10
            ]
        },
        {
            "name" : "wingtip.l",
            "rotation" : [
                0.004314410034567118,
                0.04477892443537712,
                -0.09579531103372574,
                0.9943839907646179
            ],
            "scale" : [
                0.9999999403953552,
                1,
                1
            ],
            "translation" : [
                4.980904577678302e-10,
                0.05193369835615158,
                -5.112994472256105e-10
            ]
        },
        {
            "children" : [
                1
            ],
            "name" : "wing.l",
            "rotation" : [
                -0.48996055126190186,
                0.5454995632171631,
                0.5058790445327759,
                0.4543735384941101
            ],
            "scale" : [
                1.0000001192092896,
                1,
                1
            ],
            "translation" : [
                -0.029736822471022606,
                0.0052131908014416695,
                0.018213238567113876
            ]
        },
        {
            "name" : "wingtip.r",
            "rotation" : [
                0.004474426154047251,
                -0.04644232988357544,
                0.09578786045312881,
                0.9943076968193054
            ],
            "scale" : [
                0.9999998807907104,
                0.9999998211860657,
                1
            ],
            "translation" : [
                9.160583402945122e-10,
                0.05193372443318367,
                -1.7803500895752222e-09
            ]
        },
        {
            "children" : [
                3
            ],
            "name" : "wing.r",
            "rotation" : [
                -0.4899582266807556,
                -0.545501172542572,
                -0.5058811902999878,
                0.4543716311454773
            ],
            "scale" : [
                1.0000001192092896,
                1,
                1
            ],
            "translation" : [
                0.029736725613474846,
                0.005213191267102957,
                0.01821344718337059
            ]
        },
        {
            "children" : [
                0,
                2,
                4
            ],
            "name" : "Bone.002",
            "rotation" : [
                -1.0157109642250362e-07,
                0.9995232820510864,
                -0.03087347000837326,
                -7.343794550251914e-06
            ],
            "scale" : [
                1,
                1.0000001192092896,
                1
            ],
            "translation" : [
                2.6645352591003757e-15,
                0.04058967903256416,
                -1.1641532182693481e-10
            ]
        },
        {
            "children" : [
                5
            ],
            "name" : "Bone.001",
            "rotation" : [
                0.04004504531621933,
                -3.4533893540356075e-06,
                -2.91153270381983e-07,
                0.9991979002952576
            ],
            "scale" : [
                1,
                0.9999999403953552,
                1
            ],
            "translation" : [
                0,
                0.03261888399720192,
                4.656612873077393e-10
            ]
        },
        {
            "children" : [
                6
            ],
            "name" : "Bone",
            "rotation" : [
                0.6732208728790283,
                -1.4103314924795995e-06,
                -1.2840308727390948e-06,
                0.7394415140151978
            ],
            "scale" : [
                1,
                0.9999999403953552,
                0.9999720454216003
            ],
            "translation" : [
                0,
                0.0034939227625727654,
                -0.09430598467588425
            ]
        },
        {
            "mesh" : 0,
            "name" : "Puput",
            "skin" : 0
        },
        {
            "children" : [
                8,
                7
            ],
            "name" : "Puput_armature"
        }
    ],
    "animations" : [
        {
            "channels" : [
                {
                    "sampler" : 0,
                    "target" : {
                        "node" : 4,
                        "path" : "rotation"
                    }
                },
                {
                    "sampler" : 1,
                    "target" : {
                        "node" : 4,
                        "path" : "translation"
                    }
                },
                {
                    "sampler" : 2,
                    "target" : {
                        "node" : 4,
                        "path" : "scale"
                    }
                },
                {
                    "sampler" : 3,
                    "target" : {
                        "node" : 3,
                        "path" : "rotation"
                    }
                },
                {
                    "sampler" : 4,
                    "target" : {
                        "node" : 3,
                        "path" : "translation"
                    }
                },
                {
                    "sampler" : 5,
                    "target" : {
                        "node" : 3,
                        "path" : "scale"
                    }
                },
                {
                    "sampler" : 6,
                    "target" : {
                        "node" : 2,
                        "path" : "rotation"
                    }
                },
                {
                    "sampler" : 7,
                    "target" : {
                        "node" : 2,
                        "path" : "translation"
                    }
                },
                {
                    "sampler" : 8,
                    "target" : {
                        "node" : 2,
                        "path" : "scale"
                    }
                },
                {
                    "sampler" : 9,
                    "target" : {
                        "node" : 1,
                        "path" : "rotation"
                    }
                },
                {
                    "sampler" : 10,
                    "target" : {
                        "node" : 5,
                        "path" : "rotation"
                    }
                },
                {
                    "sampler" : 11,
                    "target" : {
                        "node" : 6,
                        "path" : "rotation"
                    }
                }
            ],
            "name" : "ArmatureAction.008",
            "samplers" : [
                {
                    "input" : 5,
                    "interpolation" : "CUBICSPLINE",
                    "output" : 6
                },
                {
                    "input" : 7,
                    "interpolation" : "STEP",
                    "output" : 8
                },
                {
                    "input" : 7,
                    "interpolation" : "STEP",
                    "output" : 9
                },
                {
                    "input" : 5,
                    "interpolation" : "CUBICSPLINE",
                    "output" : 10
                },
                {
                    "input" : 11,
                    "interpolation" : "STEP",
                    "output" : 12
                },
                {
                    "input" : 11,
                    "interpolation" : "STEP",
                    "output" : 13
                },
                {
                    "input" : 5,
                    "interpolation" : "CUBICSPLINE",
                    "output" : 14
                },
                {
                    "input" : 7,
                    "interpolation" : "STEP",
                    "output" : 15
                },
                {
                    "input" : 7,
                    "interpolation" : "STEP",
                    "output" : 16
                },
                {
                    "input" : 5,
                    "interpolation" : "CUBICSPLINE",
                    "output" : 17
                },
                {
                    "input" : 5,
                    "interpolation" : "CUBICSPLINE",
                    "output" : 18
                },
                {
                    "input" : 5,
                    "interpolation" : "CUBICSPLINE",
                    "output" : 19
                }
            ]
        }
    ],
    "meshes" : [
        {
            "name" : "Puput_geo",
            "primitives" : [
                {
                    "attributes" : {
                        "POSITION" : 0,
                        "JOINTS_0" : 1,
                        "WEIGHTS_0" : 2
                    },
                    "indices" : 3
                }
            ]
        }
    ],
    "skins" : [
        {
            "inverseBindMatrices" : 4,
            "joints" : [
                7,
                6,
                5,
                0,
                2,
                1,
                4,
                3
            ],
            "name" : "Puput_armature"
        }
    ],
    "accessors" : [
        {
            "bufferView" : 0,
            "componentType" : 5126,
            "count" : 1688,
            "max" : [
                0.207213893532753,
                0.0596112497150898,
                0.13309088349342346
            ],
            "min" : [
                -0.207213893532753,
                -0.029200131073594093,
                -0.15052048861980438
            ],
            "type" : "VEC3"
        },
        {
            "bufferView" : 1,
            "componentType" : 5123,
            "count" : 1688,
            "type" : "VEC4"
        },
        {
            "bufferView" : 2,
            "componentType" : 5126,
            "count" : 1688,
            "type" : "VEC4"
        },
        {
            "bufferView" : 3,
            "componentType" : 5123,
            "count" : 3168,
            "type" : "SCALAR"
        },
        {
            "bufferView" : 4,
            "componentType" : 5126,
            "count" : 8,
            "type" : "MAT4"
        },
        {
            "bufferView" : 5,
            "componentType" : 5126,
            "count" : 4,
            "max" : [
                1
            ],
            "min" : [
                0
            ],
            "type" : "SCALAR"
        },
        {
            "bufferView" : 6,
            "componentType" : 5126,
            "count" : 12,
            "type" : "VEC4"
        },
        {
            "bufferView" : 7,
            "componentType" : 5126,
            "count" : 1,
            "max" : [
                0.75
            ],
            "min" : [
                0.75
            ],
            "type" : "SCALAR"
        },
        {
            "bufferView" : 8,
            "componentType" : 5126,
            "count" : 1,
            "type" : "VEC3"
        },
        {
            "bufferView" : 9,
            "componentType" : 5126,
            "count" : 1,
            "type" : "VEC3"
        },
        {
            "bufferView" : 10,
            "componentType" : 5126,
            "count" : 12,
            "type" : "VEC4"
        },
        {
            "bufferView" : 11,
            "componentType" : 5126,
            "count" : 1,
            "max" : [
                0
            ],
            "min" : [
                0
            ],
            "type" : "SCALAR"
        },
        {
            "bufferView" : 12,
            "componentType" : 5126,
            "count" : 1,
            "type" : "VEC3"
        },
        {
            "bufferView" : 13,
            "componentType" : 5126,
            "count" : 1,
            "type" : "VEC3"
        },
        {
            "bufferView" : 14,
            "componentType" : 5126,
            "count" : 12,
            "type" : "VEC4"
        },
        {
            "bufferView" : 15,
            "componentType" : 5126,
            "count" : 1,
            "type" : "VEC3"
        },
        {
            "bufferView" : 16,
            "componentType" : 5126,
            "count" : 1,
            "type" : "VEC3"
        },
        {
            "bufferView" : 17,
            "componentType" : 5126,
            "count" : 12,
            "type" : "VEC4"
        },
        {
            "bufferView" : 18,
            "componentType" : 5126,
            "count" : 12,
            "type" : "VEC4"
        },
        {
            "bufferView" : 19,
            "componentType" : 5126,
            "count" : 12,
            "type" : "VEC4"
        }
    ],
    "bufferViews" : [
        {
            "buffer" : 0,
            "byteLength" : 20256,
            "byteOffset" : 0
        },
        {
            "buffer" : 0,
            "byteLength" : 13504,
            "byteOffset" : 20256
        },
        {
            "buffer" : 0,
            "byteLength" : 27008,
            "byteOffset" : 33760
        },
        {
            "buffer" : 0,
            "byteLength" : 6336,
            "byteOffset" : 60768
        },
        {
            "buffer" : 0,
            "byteLength" : 512,
            "byteOffset" : 67104
        },
        {
            "buffer" : 0,
            "byteLength" : 16,
            "byteOffset" : 67616
        },
        {
            "buffer" : 0,
            "byteLength" : 192,
            "byteOffset" : 67632
        },
        {
            "buffer" : 0,
            "byteLength" : 4,
            "byteOffset" : 67824
        },
        {
            "buffer" : 0,
            "byteLength" : 12,
            "byteOffset" : 67828
        },
        {
            "buffer" : 0,
            "byteLength" : 12,
            "byteOffset" : 67840
        },
        {
            "buffer" : 0,
            "byteLength" : 192,
            "byteOffset" : 67852
        },
        {
            "buffer" : 0,
            "byteLength" : 4,
            "byteOffset" : 68044
        },
        {
            "buffer" : 0,
            "byteLength" : 12,
            "byteOffset" : 68048
        },
        {
            "buffer" : 0,
            "byteLength" : 12,
            "byteOffset" : 68060
        },
        {
            "buffer" : 0,
            "byteLength" : 192,
            "byteOffset" : 68072
        },
        {
            "buffer" : 0,
            "byteLength" : 12,
            "byteOffset" : 68264
        },
        {
            "buffer" : 0,
            "byteLength" : 12,
            "byteOffset" : 68276
        },
        {
            "buffer" : 0,
            "byteLength" : 192,
            "byteOffset" : 68288
        },
        {
            "buffer" : 0,
            "byteLength" : 192,
            "byteOffset" : 68480
        },
        {
            "buffer" : 0,
            "byteLength" : 192,
            "byteOffset" : 68672
        }
    ],
    "buffers" : [
        {
            "byteLength" : 68864,
            "uri" : "data:application/octet-stream;base64,"
        }
    ]
}
