{
    "asset" : {
        "generator" : "Khronos glTF Blender I/O v0.9.36",
        "version" : "2.0"
    },
    "scene" : 0,
    "scenes" : [
        {
            "name" : "Animate",
            "nodes" : [
                9
            ]
        }
    ],
    "nodes" : [
        {
            "name" : "Bone.003",
            "rotation" : [
                -0.00022529985290020704,
                0.998885452747345,
                0.04719948768615723,
                1.5198121218418237e-05
            ],
            "scale" : [
                0.9999999403953552,
                0.9999999403953552,
                0.9999999403953552
            ],
            "translation" : [
                8.924186666340803e-16,
                0.0390438549220562,
                0
            ]
        },
        {
            "name" : "wingtip.l",
            "rotation" : [
                0.0043144021183252335,
                0.04477902129292488,
                -0.09579535573720932,
                0.9943840503692627
            ],
            "translation" : [
                -6.626628135109058e-10,
                0.05193370208144188,
                -9.201563955230085e-10
            ]
        },
        {
            "children" : [
                1
            ],
            "name" : "wing.l",
            "rotation" : [
                -0.4899604618549347,
                0.5454995632171631,
                0.5058791041374207,
                0.45437347888946533
            ],
            "scale" : [
                1.000000238418579,
                1,
                1
            ],
            "translation" : [
                -0.029736822471022606,
                0.0052131908014416695,
                0.018213244155049324
            ]
        },
        {
            "name" : "wingtip.r",
            "rotation" : [
                0.004474418703466654,
                -0.046442195773124695,
                0.09578792005777359,
                0.9943076968193054
            ],
            "scale" : [
                0.9999998807907104,
                0.9999998211860657,
                1
            ],
            "translation" : [
                -1.211658329225429e-09,
                0.05193372070789337,
                1.0010126061388291e-10
            ]
        },
        {
            "children" : [
                3
            ],
            "name" : "wing.r",
            "rotation" : [
                -0.4899582266807556,
                -0.545501172542572,
                -0.5058811902999878,
                0.4543716311454773
            ],
            "scale" : [
                1.0000001192092896,
                1,
                1
            ],
            "translation" : [
                0.029736725613474846,
                0.005213191267102957,
                0.01821344718337059
            ]
        },
        {
            "children" : [
                0,
                2,
                4
            ],
            "name" : "Bone.002",
            "rotation" : [
                -3.60873372073911e-07,
                0.9995232820510864,
                -0.030873488634824753,
                -1.5684467143728398e-05
            ],
            "scale" : [
                1,
                1.0000001192092896,
                1
            ],
            "translation" : [
                -3.552713678800501e-15,
                0.040589675307273865,
                -1.3096723705530167e-10
            ]
        },
        {
            "children" : [
                5
            ],
            "name" : "Bone.001",
            "rotation" : [
                0.040045056492090225,
                -1.2413968761393335e-05,
                -6.025334187143017e-07,
                0.9991979002952576
            ],
            "scale" : [
                1,
                0.9999999403953552,
                1
            ],
            "translation" : [
                1.7763568394002505e-15,
                0.03261888027191162,
                0
            ]
        },
        {
            "children" : [
                6
            ],
            "name" : "Bone",
            "rotation" : [
                0.6732208728790283,
                -9.696026381789125e-07,
                -8.827710189507343e-07,
                0.7394415140151978
            ],
            "scale" : [
                1,
                0.9999999403953552,
                0.9999718070030212
            ],
            "translation" : [
                0,
                0,
                -0.08906510472297668
            ]
        },
        {
            "mesh" : 0,
            "name" : "Tortola",
            "scale" : [
                0.7059153914451599,
                0.7059153914451599,
                0.7059153914451599
            ],
            "skin" : 0
        },
        {
            "children" : [
                8,
                7
            ],
            "name" : "Tortola_armature"
        }
    ],
    "animations" : [
        {
            "channels" : [
                {
                    "sampler" : 0,
                    "target" : {
                        "node" : 4,
                        "path" : "rotation"
                    }
                },
                {
                    "sampler" : 1,
                    "target" : {
                        "node" : 4,
                        "path" : "translation"
                    }
                },
                {
                    "sampler" : 2,
                    "target" : {
                        "node" : 4,
                        "path" : "scale"
                    }
                },
                {
                    "sampler" : 3,
                    "target" : {
                        "node" : 3,
                        "path" : "rotation"
                    }
                },
                {
                    "sampler" : 4,
                    "target" : {
                        "node" : 3,
                        "path" : "translation"
                    }
                },
                {
                    "sampler" : 5,
                    "target" : {
                        "node" : 3,
                        "path" : "scale"
                    }
                },
                {
                    "sampler" : 6,
                    "target" : {
                        "node" : 2,
                        "path" : "rotation"
                    }
                },
                {
                    "sampler" : 7,
                    "target" : {
                        "node" : 2,
                        "path" : "translation"
                    }
                },
                {
                    "sampler" : 8,
                    "target" : {
                        "node" : 2,
                        "path" : "scale"
                    }
                },
                {
                    "sampler" : 9,
                    "target" : {
                        "node" : 1,
                        "path" : "rotation"
                    }
                },
                {
                    "sampler" : 10,
                    "target" : {
                        "node" : 5,
                        "path" : "rotation"
                    }
                },
                {
                    "sampler" : 11,
                    "target" : {
                        "node" : 6,
                        "path" : "rotation"
                    }
                }
            ],
            "name" : "ArmatureAction.009",
            "samplers" : [
                {
                    "input" : 5,
                    "interpolation" : "CUBICSPLINE",
                    "output" : 6
                },
                {
                    "input" : 7,
                    "interpolation" : "STEP",
                    "output" : 8
                },
                {
                    "input" : 7,
                    "interpolation" : "STEP",
                    "output" : 9
                },
                {
                    "input" : 5,
                    "interpolation" : "CUBICSPLINE",
                    "output" : 10
                },
                {
                    "input" : 11,
                    "interpolation" : "STEP",
                    "output" : 12
                },
                {
                    "input" : 11,
                    "interpolation" : "STEP",
                    "output" : 13
                },
                {
                    "input" : 5,
                    "interpolation" : "CUBICSPLINE",
                    "output" : 14
                },
                {
                    "input" : 7,
                    "interpolation" : "STEP",
                    "output" : 15
                },
                {
                    "input" : 7,
                    "interpolation" : "STEP",
                    "output" : 16
                },
                {
                    "input" : 5,
                    "interpolation" : "CUBICSPLINE",
                    "output" : 17
                },
                {
                    "input" : 5,
                    "interpolation" : "CUBICSPLINE",
                    "output" : 18
                },
                {
                    "input" : 5,
                    "interpolation" : "CUBICSPLINE",
                    "output" : 19
                }
            ]
        }
    ],
    "meshes" : [
        {
            "name" : "Tortola_geo",
            "primitives" : [
                {
                    "attributes" : {
                        "POSITION" : 0,
                        "JOINTS_0" : 1,
                        "WEIGHTS_0" : 2
                    },
                    "indices" : 3
                }
            ]
        }
    ],
    "skins" : [
        {
            "inverseBindMatrices" : 4,
            "joints" : [
                7,
                6,
                5,
                0,
                2,
                1,
                4,
                3
            ],
            "name" : "Tortola_armature"
        }
    ],
    "accessors" : [
        {
            "bufferView" : 0,
            "componentType" : 5126,
            "count" : 1945,
            "max" : [
                0.27311280369758606,
                0.0615399144589901,
                0.14902877807617188
            ],
            "min" : [
                -0.2729800343513489,
                -0.05729147419333458,
                -0.27210021018981934
            ],
            "type" : "VEC3"
        },
        {
            "bufferView" : 1,
            "componentType" : 5123,
            "count" : 1945,
            "type" : "VEC4"
        },
        {
            "bufferView" : 2,
            "componentType" : 5126,
            "count" : 1945,
            "type" : "VEC4"
        },
        {
            "bufferView" : 3,
            "componentType" : 5123,
            "count" : 2049,
            "type" : "SCALAR"
        },
        {
            "bufferView" : 4,
            "componentType" : 5126,
            "count" : 8,
            "type" : "MAT4"
        },
        {
            "bufferView" : 5,
            "componentType" : 5126,
            "count" : 4,
            "max" : [
                1
            ],
            "min" : [
                0
            ],
            "type" : "SCALAR"
        },
        {
            "bufferView" : 6,
            "componentType" : 5126,
            "count" : 12,
            "type" : "VEC4"
        },
        {
            "bufferView" : 7,
            "componentType" : 5126,
            "count" : 1,
            "max" : [
                0.75
            ],
            "min" : [
                0.75
            ],
            "type" : "SCALAR"
        },
        {
            "bufferView" : 8,
            "componentType" : 5126,
            "count" : 1,
            "type" : "VEC3"
        },
        {
            "bufferView" : 9,
            "componentType" : 5126,
            "count" : 1,
            "type" : "VEC3"
        },
        {
            "bufferView" : 10,
            "componentType" : 5126,
            "count" : 12,
            "type" : "VEC4"
        },
        {
            "bufferView" : 11,
            "componentType" : 5126,
            "count" : 1,
            "max" : [
                0
            ],
            "min" : [
                0
            ],
            "type" : "SCALAR"
        },
        {
            "bufferView" : 12,
            "componentType" : 5126,
            "count" : 1,
            "type" : "VEC3"
        },
        {
            "bufferView" : 13,
            "componentType" : 5126,
            "count" : 1,
            "type" : "VEC3"
        },
        {
            "bufferView" : 14,
            "componentType" : 5126,
            "count" : 12,
            "type" : "VEC4"
        },
        {
            "bufferView" : 15,
            "componentType" : 5126,
            "count" : 1,
            "type" : "VEC3"
        },
        {
            "bufferView" : 16,
            "componentType" : 5126,
            "count" : 1,
            "type" : "VEC3"
        },
        {
            "bufferView" : 17,
            "componentType" : 5126,
            "count" : 12,
            "type" : "VEC4"
        },
        {
            "bufferView" : 18,
            "componentType" : 5126,
            "count" : 12,
            "type" : "VEC4"
        },
        {
            "bufferView" : 19,
            "componentType" : 5126,
            "count" : 12,
            "type" : "VEC4"
        }
    ],
    "bufferViews" : [
        {
            "buffer" : 0,
            "byteLength" : 23340,
            "byteOffset" : 0
        },
        {
            "buffer" : 0,
            "byteLength" : 15560,
            "byteOffset" : 23340
        },
        {
            "buffer" : 0,
            "byteLength" : 31120,
            "byteOffset" : 38900
        },
        {
            "buffer" : 0,
            "byteLength" : 4098,
            "byteOffset" : 70020
        },
        {
            "buffer" : 0,
            "byteLength" : 512,
            "byteOffset" : 74120
        },
        {
            "buffer" : 0,
            "byteLength" : 16,
            "byteOffset" : 74632
        },
        {
            "buffer" : 0,
            "byteLength" : 192,
            "byteOffset" : 74648
        },
        {
            "buffer" : 0,
            "byteLength" : 4,
            "byteOffset" : 74840
        },
        {
            "buffer" : 0,
            "byteLength" : 12,
            "byteOffset" : 74844
        },
        {
            "buffer" : 0,
            "byteLength" : 12,
            "byteOffset" : 74856
        },
        {
            "buffer" : 0,
            "byteLength" : 192,
            "byteOffset" : 74868
        },
        {
            "buffer" : 0,
            "byteLength" : 4,
            "byteOffset" : 75060
        },
        {
            "buffer" : 0,
            "byteLength" : 12,
            "byteOffset" : 75064
        },
        {
            "buffer" : 0,
            "byteLength" : 12,
            "byteOffset" : 75076
        },
        {
            "buffer" : 0,
            "byteLength" : 192,
            "byteOffset" : 75088
        },
        {
            "buffer" : 0,
            "byteLength" : 12,
            "byteOffset" : 75280
        },
        {
            "buffer" : 0,
            "byteLength" : 12,
            "byteOffset" : 75292
        },
        {
            "buffer" : 0,
            "byteLength" : 192,
            "byteOffset" : 75304
        },
        {
            "buffer" : 0,
            "byteLength" : 192,
            "byteOffset" : 75496
        },
        {
            "buffer" : 0,
            "byteLength" : 192,
            "byteOffset" : 75688
        }
    ],
    "buffers" : [
        {
            "byteLength" : 75880,
            "uri" : "data:application/octet-stream;base64,"
        }
    ]
}
