{
    "asset" : {
        "generator" : "Khronos glTF Blender I/O v0.9.36",
        "version" : "2.0"
    },
    "scene" : 0,
    "scenes" : [
        {
            "name" : "Animate",
            "nodes" : [
                9
            ]
        }
    ],
    "nodes" : [
        {
            "name" : "Bone.003",
            "rotation" : [
                -0.0002253016718896106,
                0.9988855123519897,
                0.04719947278499603,
                1.5198121218418237e-05
            ],
            "scale" : [
                0.9999999403953552,
                0.9999998807907104,
                0.9999999403953552
            ],
            "translation" : [
                -2.9278646733910552e-15,
                0.0390438511967659,
                0
            ]
        },
        {
            "name" : "wingtip.l",
            "rotation" : [
                0.004314398858696222,
                0.044778972864151,
                -0.09579533338546753,
                0.9943839907646179
            ],
            "scale" : [
                0.9999999403953552,
                0.9999999403953552,
                1.0000001192092896
            ],
            "translation" : [
                -1.0560627927702626e-09,
                0.05193370580673218,
                -2.2657431486550195e-10
            ]
        },
        {
            "children" : [
                1
            ],
            "name" : "wing.l",
            "rotation" : [
                -0.4899604916572571,
                0.5454995036125183,
                0.5058790445327759,
                0.4543735980987549
            ],
            "scale" : [
                1,
                0.9999998807907104,
                1
            ],
            "translation" : [
                -0.02973679080605507,
                0.004604507237672806,
                0.010148164816200733
            ]
        },
        {
            "name" : "wingtip.r",
            "rotation" : [
                0.004474427085369825,
                -0.04644232243299484,
                0.0957878902554512,
                0.9943076968193054
            ],
            "scale" : [
                0.9999998211860657,
                0.9999998211860657,
                1
            ],
            "translation" : [
                -5.826106264095188e-10,
                0.05193372443318367,
                2.404476617812179e-11
            ]
        },
        {
            "children" : [
                3
            ],
            "name" : "wing.r",
            "rotation" : [
                -0.4899582266807556,
                -0.545501172542572,
                -0.5058811902999878,
                0.4543716311454773
            ],
            "scale" : [
                1.0000001192092896,
                1,
                1
            ],
            "translation" : [
                0.029736757278442383,
                0.004604507703334093,
                0.010148369707167149
            ]
        },
        {
            "children" : [
                0,
                2,
                4
            ],
            "name" : "Bone.002",
            "rotation" : [
                -5.423692783779188e-08,
                0.9995232820510864,
                -0.030873484909534454,
                -5.794811386294896e-06
            ],
            "scale" : [
                1,
                1.0000001192092896,
                1
            ],
            "translation" : [
                9.31583352532751e-16,
                0.040589675307273865,
                -1.4551915228366852e-10
            ]
        },
        {
            "children" : [
                5
            ],
            "name" : "Bone.001",
            "rotation" : [
                0.04004505276679993,
                -2.5086835648835404e-06,
                -2.055602266182177e-07,
                0.9991979002952576
            ],
            "scale" : [
                1,
                0.9999999403953552,
                1
            ],
            "translation" : [
                8.881784197001252e-16,
                0.03261888027191162,
                4.656612873077393e-10
            ]
        },
        {
            "children" : [
                6
            ],
            "name" : "Bone",
            "rotation" : [
                0.6732208728790283,
                -9.69628558777913e-07,
                -8.827946089695615e-07,
                0.7394415140151978
            ],
            "scale" : [
                1,
                0.9999999403953552,
                0.9999720454216003
            ],
            "translation" : [
                0,
                0,
                -0.07916565239429474
            ]
        },
        {
            "mesh" : 0,
            "name" : "Golondrina",
            "skin" : 0
        },
        {
            "children" : [
                8,
                7
            ],
            "name" : "Golondrina_armature"
        }
    ],
    "animations" : [
        {
            "channels" : [
                {
                    "sampler" : 0,
                    "target" : {
                        "node" : 4,
                        "path" : "rotation"
                    }
                },
                {
                    "sampler" : 1,
                    "target" : {
                        "node" : 4,
                        "path" : "translation"
                    }
                },
                {
                    "sampler" : 2,
                    "target" : {
                        "node" : 4,
                        "path" : "scale"
                    }
                },
                {
                    "sampler" : 3,
                    "target" : {
                        "node" : 3,
                        "path" : "rotation"
                    }
                },
                {
                    "sampler" : 4,
                    "target" : {
                        "node" : 3,
                        "path" : "translation"
                    }
                },
                {
                    "sampler" : 5,
                    "target" : {
                        "node" : 3,
                        "path" : "scale"
                    }
                },
                {
                    "sampler" : 6,
                    "target" : {
                        "node" : 2,
                        "path" : "rotation"
                    }
                },
                {
                    "sampler" : 7,
                    "target" : {
                        "node" : 2,
                        "path" : "translation"
                    }
                },
                {
                    "sampler" : 8,
                    "target" : {
                        "node" : 2,
                        "path" : "scale"
                    }
                },
                {
                    "sampler" : 9,
                    "target" : {
                        "node" : 1,
                        "path" : "rotation"
                    }
                },
                {
                    "sampler" : 10,
                    "target" : {
                        "node" : 5,
                        "path" : "rotation"
                    }
                },
                {
                    "sampler" : 11,
                    "target" : {
                        "node" : 6,
                        "path" : "rotation"
                    }
                }
            ],
            "name" : "ArmatureAction.007",
            "samplers" : [
                {
                    "input" : 5,
                    "interpolation" : "CUBICSPLINE",
                    "output" : 6
                },
                {
                    "input" : 7,
                    "interpolation" : "STEP",
                    "output" : 8
                },
                {
                    "input" : 7,
                    "interpolation" : "STEP",
                    "output" : 9
                },
                {
                    "input" : 5,
                    "interpolation" : "CUBICSPLINE",
                    "output" : 10
                },
                {
                    "input" : 11,
                    "interpolation" : "STEP",
                    "output" : 12
                },
                {
                    "input" : 11,
                    "interpolation" : "STEP",
                    "output" : 13
                },
                {
                    "input" : 5,
                    "interpolation" : "CUBICSPLINE",
                    "output" : 14
                },
                {
                    "input" : 7,
                    "interpolation" : "STEP",
                    "output" : 15
                },
                {
                    "input" : 7,
                    "interpolation" : "STEP",
                    "output" : 16
                },
                {
                    "input" : 5,
                    "interpolation" : "CUBICSPLINE",
                    "output" : 17
                },
                {
                    "input" : 5,
                    "interpolation" : "CUBICSPLINE",
                    "output" : 18
                },
                {
                    "input" : 5,
                    "interpolation" : "CUBICSPLINE",
                    "output" : 19
                }
            ]
        }
    ],
    "meshes" : [
        {
            "name" : "Golondrina_geo",
            "primitives" : [
                {
                    "attributes" : {
                        "POSITION" : 0,
                        "JOINTS_0" : 1,
                        "WEIGHTS_0" : 2
                    },
                    "indices" : 3
                }
            ]
        }
    ],
    "skins" : [
        {
            "inverseBindMatrices" : 4,
            "joints" : [
                7,
                6,
                5,
                0,
                2,
                1,
                4,
                3
            ],
            "name" : "Golondrina_armature"
        }
    ],
    "accessors" : [
        {
            "bufferView" : 0,
            "componentType" : 5126,
            "count" : 1721,
            "max" : [
                0.14281746745109558,
                0.01741722598671913,
                0.06554535031318665
            ],
            "min" : [
                -0.14281746745109558,
                -0.017141833901405334,
                -0.11644458025693893
            ],
            "type" : "VEC3"
        },
        {
            "bufferView" : 1,
            "componentType" : 5123,
            "count" : 1721,
            "type" : "VEC4"
        },
        {
            "bufferView" : 2,
            "componentType" : 5126,
            "count" : 1721,
            "type" : "VEC4"
        },
        {
            "bufferView" : 3,
            "componentType" : 5123,
            "count" : 3075,
            "type" : "SCALAR"
        },
        {
            "bufferView" : 4,
            "componentType" : 5126,
            "count" : 8,
            "type" : "MAT4"
        },
        {
            "bufferView" : 5,
            "componentType" : 5126,
            "count" : 4,
            "max" : [
                1
            ],
            "min" : [
                0
            ],
            "type" : "SCALAR"
        },
        {
            "bufferView" : 6,
            "componentType" : 5126,
            "count" : 12,
            "type" : "VEC4"
        },
        {
            "bufferView" : 7,
            "componentType" : 5126,
            "count" : 1,
            "max" : [
                0.75
            ],
            "min" : [
                0.75
            ],
            "type" : "SCALAR"
        },
        {
            "bufferView" : 8,
            "componentType" : 5126,
            "count" : 1,
            "type" : "VEC3"
        },
        {
            "bufferView" : 9,
            "componentType" : 5126,
            "count" : 1,
            "type" : "VEC3"
        },
        {
            "bufferView" : 10,
            "componentType" : 5126,
            "count" : 12,
            "type" : "VEC4"
        },
        {
            "bufferView" : 11,
            "componentType" : 5126,
            "count" : 1,
            "max" : [
                0
            ],
            "min" : [
                0
            ],
            "type" : "SCALAR"
        },
        {
            "bufferView" : 12,
            "componentType" : 5126,
            "count" : 1,
            "type" : "VEC3"
        },
        {
            "bufferView" : 13,
            "componentType" : 5126,
            "count" : 1,
            "type" : "VEC3"
        },
        {
            "bufferView" : 14,
            "componentType" : 5126,
            "count" : 12,
            "type" : "VEC4"
        },
        {
            "bufferView" : 15,
            "componentType" : 5126,
            "count" : 1,
            "type" : "VEC3"
        },
        {
            "bufferView" : 16,
            "componentType" : 5126,
            "count" : 1,
            "type" : "VEC3"
        },
        {
            "bufferView" : 17,
            "componentType" : 5126,
            "count" : 12,
            "type" : "VEC4"
        },
        {
            "bufferView" : 18,
            "componentType" : 5126,
            "count" : 12,
            "type" : "VEC4"
        },
        {
            "bufferView" : 19,
            "componentType" : 5126,
            "count" : 12,
            "type" : "VEC4"
        }
    ],
    "bufferViews" : [
        {
            "buffer" : 0,
            "byteLength" : 20652,
            "byteOffset" : 0
        },
        {
            "buffer" : 0,
            "byteLength" : 13768,
            "byteOffset" : 20652
        },
        {
            "buffer" : 0,
            "byteLength" : 27536,
            "byteOffset" : 34420
        },
        {
            "buffer" : 0,
            "byteLength" : 6150,
            "byteOffset" : 61956
        },
        {
            "buffer" : 0,
            "byteLength" : 512,
            "byteOffset" : 68108
        },
        {
            "buffer" : 0,
            "byteLength" : 16,
            "byteOffset" : 68620
        },
        {
            "buffer" : 0,
            "byteLength" : 192,
            "byteOffset" : 68636
        },
        {
            "buffer" : 0,
            "byteLength" : 4,
            "byteOffset" : 68828
        },
        {
            "buffer" : 0,
            "byteLength" : 12,
            "byteOffset" : 68832
        },
        {
            "buffer" : 0,
            "byteLength" : 12,
            "byteOffset" : 68844
        },
        {
            "buffer" : 0,
            "byteLength" : 192,
            "byteOffset" : 68856
        },
        {
            "buffer" : 0,
            "byteLength" : 4,
            "byteOffset" : 69048
        },
        {
            "buffer" : 0,
            "byteLength" : 12,
            "byteOffset" : 69052
        },
        {
            "buffer" : 0,
            "byteLength" : 12,
            "byteOffset" : 69064
        },
        {
            "buffer" : 0,
            "byteLength" : 192,
            "byteOffset" : 69076
        },
        {
            "buffer" : 0,
            "byteLength" : 12,
            "byteOffset" : 69268
        },
        {
            "buffer" : 0,
            "byteLength" : 12,
            "byteOffset" : 69280
        },
        {
            "buffer" : 0,
            "byteLength" : 192,
            "byteOffset" : 69292
        },
        {
            "buffer" : 0,
            "byteLength" : 192,
            "byteOffset" : 69484
        },
        {
            "buffer" : 0,
            "byteLength" : 192,
            "byteOffset" : 69676
        }
    ],
    "buffers" : [
        {
            "byteLength" : 69868,
            "uri" : "data:application/octet-stream;base64,"
        }
    ]
}
